<svg width="35" height="35" viewBox="0 0 35 35" fill="none" xmlns="http://www.w3.org/2000/svg">
<path d="M22.78 17.5C22.78 18.5443 22.4703 19.5651 21.8902 20.4334C21.31 21.3017 20.4854 21.9785 19.5206 22.3781C18.5558 22.7777 17.4941 22.8823 16.4699 22.6785C15.4457 22.4748 14.5049 21.9719 13.7665 21.2335C13.0281 20.4951 12.5252 19.5543 12.3215 18.5301C12.1177 17.5059 12.2223 16.4442 12.6219 15.4794C13.0215 14.5146 13.6983 13.69 14.5666 13.1098C15.4349 12.5297 16.4557 12.22 17.5 12.22C18.8998 12.2216 20.2419 12.7784 21.2317 13.7683C22.2216 14.7581 22.7784 16.1002 22.78 17.5ZM34 10.24V24.76C33.9972 27.2097 33.7322 30.2678 32 32C30.2678 33.7322 27.2097 33.9972 24.76 34H10.24C7.79026 33.9972 4.73223 33.7322 3 32C1.26777 30.2678 1.00279 27.2097 1 24.76V10.24C1.00279 7.79026 1.26777 4.73223 3 3C4.73223 1.26777 7.79026 1.00279 10.24 1H24.76C27.2097 1.00279 30.2678 1.26777 32 3C33.7322 4.73223 33.9972 7.79026 34 10.24ZM25.42 17.5C25.42 15.9336 24.9555 14.4023 24.0852 13.0999C23.215 11.7974 21.978 10.7823 20.5309 10.1829C19.0837 9.58343 17.4912 9.42659 15.9549 9.73218C14.4186 10.0378 13.0073 10.7921 11.8997 11.8997C10.7921 13.0073 10.0378 14.4186 9.73218 15.9549C9.42659 17.4912 9.58343 19.0837 10.1829 20.5309C10.7823 21.978 11.7974 23.215 13.0999 24.0852C14.4023 24.9555 15.9336 25.42 17.5 25.42C19.5998 25.4176 21.6129 24.5825 23.0977 23.0977C24.5825 21.6129 25.4176 19.5998 25.42 17.5ZM28.06 8.92C28.06 8.52839 27.9439 8.14558 27.7263 7.81997C27.5087 7.49436 27.1995 7.24058 26.8377 7.09072C26.4759 6.94086 26.0778 6.90165 25.6937 6.97804C25.3096 7.05444 24.9568 7.24302 24.6799 7.51993C24.403 7.79684 24.2144 8.14964 24.138 8.53372C24.0616 8.9178 24.1009 9.31592 24.2507 9.67771C24.4006 10.0395 24.6544 10.3487 24.98 10.5663C25.3056 10.7839 25.6884 10.9 26.08 10.9C26.6051 10.9 27.1087 10.6914 27.4801 10.3201C27.8514 9.94875 28.06 9.44513 28.06 8.92Z" fill="#1E92E6"/>
</svg>
